<?xml version="1.0" standalone="no"?>
<!DOCTYPE svg PUBLIC "-//W3C//DTD SVG 20010904//EN"
 "http://www.w3.org/TR/2001/REC-SVG-20010904/DTD/svg10.dtd">
<svg version="1.0" xmlns="http://www.w3.org/2000/svg"
 width="90.000000pt" height="90.000000pt" viewBox="0 0 90.000000 90.000000"
 preserveAspectRatio="xMidYMid meet">
<metadata>
Created by potrace 1.14, written by Peter Selinger 2001-2017
</metadata>
<g transform="translate(0.000000,90.000000) scale(0.100000,-0.100000)"
fill="#000000" stroke="none">
<path d="M100 704 c-35 -15 -38 -31 -36 -201 0 -79 -2 -143 -5 -143 -3 0 -6
-7 -6 -15 0 -8 3 -15 7 -15 3 0 4 -15 2 -34 -2 -21 3 -44 14 -62 38 -59 37
-58 187 -59 123 -1 141 -3 143 -18 1 -10 -5 -17 -14 -18 -10 0 -32 -2 -49 -3
-18 -2 -33 0 -33 4 0 12 -38 0 -51 -16 -13 -16 -14 -16 71 -18 36 -1 71 -5 78
-10 6 -4 12 -3 12 2 0 5 20 6 45 2 25 -4 45 -4 45 -1 0 4 18 6 40 6 22 0 40
-3 40 -7 0 -4 11 -3 24 2 13 5 27 6 30 3 3 -4 6 3 6 14 0 17 -6 20 -56 19 -31
-1 -58 2 -61 7 -2 4 -9 5 -14 2 -5 -4 -9 1 -9 9 0 9 3 16 8 17 4 0 68 1 143 1
81 1 142 6 151 12 31 23 35 53 35 256 0 191 -1 207 -21 237 -24 38 20 34 -415
36 -194 2 -292 -2 -311 -9z"/>
</g>
</svg>
